# xmcd CD database file
#
# Track frame offsets:
#       150
#       25421
#       58417
#       72539
#       82549
#       105794
#       124162
#       140042
#       168051
#       180695
#       196305
#       215229
#       231279
#
# Disc length: 3162 seconds
#
# Revision: 0
# Processed by: cddbd v1.5.2PL0 Copyright (c) Steve Scherf et al.
# Submitted via: jack 3.1.1
#
DISCID=b90c580d
DTITLE=MADACY Ltd - Best of the Blues - 1/2
DYEAR=2005
DGENRE=Blues
TTITLE0=Roy Brown - Boogie Woogie Blues
TTITLE1=Canned Heat - Bullfrog Blues
TTITLE2=Pee Wee Crayton - Blues in the Ghetto
TTITLE3=Dr. John - Woman Is the Root of All Evil
TTITLE4=Marvin Gaye (Live) - Inner City Blues
TTITLE5=James Cotton Band - Got My Mojo Working
TTITLE6=Screamin' Jay Hawkins - Put a Spell on You
TTITLE7=Johnny Otis - Barrelhouse Blues
TTITLE8=Big Maybelle - Cried For You
TTITLE9=Mississippi Fred McDowell - Good Mornin' Littel Schoolgirl
TTITLE10=Jimmy McGriff - Jumping the Blues
TTITLE11=Memphis Slim - Cow Cow Blues
TTITLE12=Leadbelly - Big Fat Woman
EXTD=
EXTT0=
EXTT1=
EXTT2=
EXTT3=
EXTT4=
EXTT5=
EXTT6=
EXTT7=
EXTT8=
EXTT9=
EXTT10=
EXTT11=
EXTT12=
PLAYORDER=
